<svg width="48" height="48" viewBox="0 0 48 48" fill="none" xmlns="http://www.w3.org/2000/svg">
  <path d="M32.05 25.82a8.03 8.03 0 01-.863 3.642 8.147 8.147 0 01-7.283 4.505 8.03 8.03 0 01-3.642-.863L14.8 34.925l1.82-5.462a8.032 8.032 0 01-.862-3.642 8.146 8.146 0 014.504-7.284 8.03 8.03 0 013.642-.862h.48a8.127 8.127 0 017.666 7.667v.479z" stroke="currentColor" stroke-width="1.9665" stroke-linecap="round" stroke-linejoin="round"/>
  <path d="M28.025 25.725a4.025 4.025 0 00-8.05 0M36.075 25.725c0-6.669-5.406-12.075-12.075-12.075s-12.075 5.406-12.075 12.075" stroke="currentColor" stroke-width="2.3" stroke-linecap="round"/>
</svg>
