<svg width="46" height="41" viewBox="0 0 46 41" fill="none" xmlns="http://www.w3.org/2000/svg">
  <path d="M37 23.1667C37.0057 25.3665 36.4918 27.5365 35.5 29.5C34.3241 31.853 32.5162 33.832 30.2791 35.2155C28.0419 36.599 25.4637 37.3324 22.8333 37.3334C20.6336 37.3391 18.4635 36.8252 16.5 35.8334L7 39L10.1667 29.5C9.17489 27.5365 8.66093 25.3665 8.66667 23.1667C8.66768 20.5363 9.40102 17.9581 10.7845 15.721C12.168 13.4838 14.1471 11.676 16.5 10.5C18.4635 9.50827 20.6336 8.99431 22.8333 9.00005H23.6667C27.1406 9.1917 30.4217 10.658 32.8819 13.1181C35.3421 15.5783 36.8083 18.8595 37 22.3334V23.1667Z" stroke="white" stroke-width="3.42" stroke-linecap="round" stroke-linejoin="round"/>
  <path d="M30 23C30 19.134 26.866 16 23 16C19.134 16 16 19.134 16 23" stroke="white" stroke-width="4" stroke-linecap="round"/>
  <path d="M44 23C44 11.402 34.598 2 23 2C11.402 2 2 11.402 2 23" stroke="white" stroke-width="4" stroke-linecap="round"/>
</svg>
