<svg width="263" height="254" viewBox="0 0 263 254" fill="none" xmlns="http://www.w3.org/2000/svg">
  <path d="M99 94.5C99 76.55 113.551 62 131.5 62c17.949 0 32.5 14.55 32.5 32.5 0 17.949-14.551 32.5-32.5 32.5-17.949 0-32.5-14.551-32.5-32.5z" fill="none"/>
  <path d="M130 102.5a1.503 1.503 0 001.5 1.5 1.503 1.503 0 001.5-1.5V96h6.5a1.502 1.502 0 001.061-2.56A1.502 1.502 0 00139.5 93H133v-6.5a1.501 1.501 0 00-3 0V93h-6.5a1.502 1.502 0 00-1.061 2.56c.282.282.663.44 1.061.44h6.5v6.5z" fill="currentColor"/>
  <path d="M261.271 231.647a150.263 150.263 0 00-74.009-64.888 92.641 92.641 0 0032.807-46.491 92.745 92.745 0 00-.539-56.92 92.635 92.635 0 00-33.683-45.86A92.47 92.47 0 00131.737 0a92.47 92.47 0 00-54.11 17.487 92.637 92.637 0 00-33.682 45.86 92.743 92.743 0 00-.54 56.921 92.642 92.642 0 0032.808 46.491 150.26 150.26 0 00-74.01 64.888 14.633 14.633 0 00-1.766 11.277 14.639 14.639 0 006.865 9.114 14.587 14.587 0 0011.316 1.401 14.607 14.607 0 008.876-7.164c22.064-38.179 61.029-60.95 104.243-60.95 43.215 0 82.179 22.783 104.243 60.95a14.601 14.601 0 0019.718 4.941 14.641 14.641 0 005.573-19.569zM68.42 92.681a63.439 63.439 0 0110.67-35.217 63.333 63.333 0 0128.417-23.346 63.25 63.25 0 0136.583-3.607 63.297 63.297 0 0132.42 17.348 63.44 63.44 0 0113.725 69.08 63.371 63.371 0 01-23.32 28.447 63.272 63.272 0 01-35.178 10.683 63.355 63.355 0 01-44.75-18.588 63.496 63.496 0 01-18.567-44.8z" fill="currentColor"/>
</svg>
